<?xml version="1.0" encoding="utf-8"?>
<!-- Generator: Adobe Illustrator 24.2.3, SVG Export Plug-In . SVG Version: 6.00 Build 0)  -->
<svg version="1.1" id="Layer_1" xmlns="http://www.w3.org/2000/svg" xmlns:xlink="http://www.w3.org/1999/xlink" x="0px" y="0px"
	 viewBox="0 0 3000 3000" style="enable-background:new 0 0 3000 3000;" xml:space="preserve">
<style type="text/css">
	.st0{fill:#FFFFFF;}
</style>
<rect x="3020" width="3000" height="3000"/>
<rect width="3000" height="3000"/>
<g>
	<path class="st0" d="M2012.89,1261.63c9.79,12.22,23.44,14.87,38.09,7.46c30.58-15.47,61.68-30.04,91.5-46.77
		c23.03-12.93,41.85-31.81,58.02-52.55c23.28-29.87,25.83-62.48,8.73-96.47c-16.43-32.61-45.19-44.37-79.27-46.25
		c-7.87-0.41-15.97,2.08-23.84,3.91c-12.74,3.03-23.53,0.4-33.37-8.53c-5.94-5.38-12.94-9.69-19.84-13.74
		c-59.19-34.53-130.08,9.95-133.69,88.46c3.65,11.66,8.53,31.24,15.83,49.85C1952.34,1190.88,1983.99,1225.47,2012.89,1261.63z"/>
	<path class="st0" d="M2703.45,1564.87h-89.05c-3.97,0-7.41,4.28-10.33,12.83c-2.53,8.79-1.81,13.19,2.16,13.19h89.05
		c3.96,0,7.44-4.39,10.44-13.19C2708.17,1569.14,2707.41,1564.87,2703.45,1564.87z"/>
	<path class="st0" d="M2850.77,1539.23c-0.85-1.15-1.77-2.23-2.74-3.25c-0.16-0.17-0.32-0.35-0.48-0.52
		c-0.16-0.17-0.32-0.35-0.48-0.52c-0.16-0.17-0.32-0.35-0.48-0.52c-0.16-0.17-0.32-0.35-0.48-0.52c-0.16-0.17-0.32-0.35-0.48-0.52
		c-0.16-0.17-0.32-0.35-0.48-0.52c-0.16-0.17-0.32-0.35-0.48-0.52c-0.16-0.17-0.32-0.35-0.48-0.52c-0.16-0.17-0.32-0.35-0.48-0.52
		c-0.16-0.17-0.32-0.35-0.48-0.52c-0.16-0.17-0.32-0.35-0.48-0.52c-0.16-0.17-0.32-0.35-0.48-0.52c-0.16-0.17-0.32-0.35-0.48-0.52
		c-0.16-0.17-0.32-0.35-0.48-0.52c-0.16-0.17-0.32-0.35-0.48-0.52c-0.16-0.17-0.32-0.35-0.48-0.52c-0.16-0.17-0.32-0.35-0.48-0.52
		c-0.16-0.17-0.32-0.35-0.48-0.52c-0.16-0.17-0.32-0.35-0.48-0.52c-0.16-0.17-0.32-0.35-0.48-0.52c-0.16-0.17-0.32-0.35-0.48-0.52
		c-0.16-0.17-0.32-0.35-0.48-0.52c-0.16-0.17-0.32-0.35-0.48-0.52c-0.16-0.17-0.32-0.35-0.48-0.52c-0.16-0.17-0.32-0.35-0.48-0.52
		c-0.16-0.17-0.32-0.35-0.48-0.52c-0.16-0.17-0.32-0.35-0.48-0.52c-0.16-0.17-0.32-0.35-0.48-0.52c-0.16-0.17-0.32-0.35-0.48-0.52
		c-0.16-0.17-0.32-0.35-0.48-0.52c-0.16-0.17-0.32-0.35-0.48-0.52c-0.16-0.17-0.32-0.35-0.48-0.52c-0.16-0.17-0.32-0.35-0.48-0.52
		c-0.16-0.17-0.32-0.35-0.48-0.52c-0.16-0.17-0.32-0.35-0.48-0.52c-0.16-0.17-0.32-0.35-0.48-0.52c-0.16-0.17-0.32-0.35-0.48-0.52
		c-0.16-0.17-0.32-0.35-0.48-0.51c-0.16-0.17-0.32-0.35-0.49-0.52c-0.16-0.17-0.32-0.35-0.48-0.52c-0.16-0.17-0.32-0.35-0.48-0.52
		c-0.16-0.17-0.32-0.35-0.48-0.52c-0.16-0.17-0.32-0.35-0.48-0.52c-0.16-0.17-0.32-0.35-0.48-0.52c-0.16-0.17-0.32-0.35-0.48-0.52
		c-0.16-0.17-0.32-0.35-0.48-0.52c-0.16-0.17-0.32-0.35-0.48-0.52c-0.16-0.17-0.32-0.35-0.48-0.52c-0.16-0.17-0.32-0.35-0.48-0.52
		c-0.16-0.17-0.32-0.35-0.48-0.52c-0.16-0.17-0.32-0.35-0.48-0.52c-0.16-0.17-0.32-0.35-0.48-0.52c-0.16-0.17-0.32-0.35-0.48-0.52
		c-0.16-0.17-0.32-0.35-0.48-0.52c-0.16-0.17-0.32-0.35-0.48-0.52c-0.16-0.17-0.32-0.35-0.48-0.52c-0.16-0.17-0.32-0.35-0.48-0.52
		c-0.16-0.17-0.32-0.35-0.48-0.52c-0.16-0.17-0.32-0.35-0.48-0.51c-0.16-0.17-0.32-0.35-0.48-0.52c-0.16-0.17-0.32-0.35-0.48-0.52
		c-0.16-0.17-0.32-0.35-0.48-0.52c-0.16-0.17-0.32-0.35-0.48-0.52c-0.16-0.17-0.32-0.35-0.48-0.52c-0.16-0.17-0.32-0.35-0.48-0.52
		c-0.16-0.17-0.32-0.35-0.48-0.52c-0.16-0.17-0.32-0.35-0.48-0.52c-0.16-0.17-0.32-0.35-0.48-0.52c-0.16-0.17-0.32-0.35-0.48-0.52
		c-0.16-0.17-0.32-0.35-0.48-0.52c-0.16-0.17-0.32-0.35-0.48-0.52c-0.16-0.17-0.32-0.35-0.48-0.52c-0.16-0.17-0.32-0.35-0.48-0.52
		c-0.16-0.17-0.32-0.35-0.48-0.52c-0.16-0.17-0.32-0.35-0.48-0.52c-0.16-0.17-0.32-0.35-0.48-0.52c-0.16-0.17-0.32-0.35-0.48-0.52
		c-0.16-0.17-0.32-0.35-0.48-0.52c-0.16-0.17-0.32-0.35-0.48-0.52c-0.16-0.17-0.32-0.35-0.48-0.52c-0.16-0.17-0.32-0.35-0.48-0.51
		c-0.16-0.17-0.32-0.35-0.48-0.52c-0.16-0.17-0.32-0.35-0.48-0.52c-0.16-0.17-0.32-0.35-0.48-0.52c-0.16-0.17-0.32-0.35-0.48-0.52
		c-0.16-0.17-0.32-0.35-0.48-0.52c-0.16-0.17-0.32-0.35-0.48-0.52c-0.16-0.17-0.32-0.35-0.48-0.52c-0.16-0.17-0.32-0.35-0.48-0.52
		c-0.16-0.17-0.32-0.35-0.48-0.52c-0.16-0.17-0.32-0.35-0.48-0.52c-0.16-0.17-0.32-0.35-0.48-0.52c-0.16-0.17-0.32-0.35-0.48-0.52
		c-0.16-0.17-0.32-0.35-0.48-0.52c-0.16-0.17-0.32-0.35-0.48-0.52c-0.16-0.17-0.32-0.35-0.48-0.52c-0.16-0.17-0.32-0.35-0.48-0.52
		c-0.16-0.17-0.32-0.35-0.48-0.52c-0.16-0.17-0.32-0.35-0.48-0.52c-0.16-0.17-0.32-0.35-0.48-0.52
		c-6.25-6.81-15.16-10.66-24.97-10.66h-158.67c-28.64-37.67-69.49-61.33-122.45-70.95c-35.09-6.34-67.86-0.55-100.93,9.89
		c-21.21,6.64-21.45,5.99-34.65-11.72c-3.6-4.86-6.49-10.24-10.09-15.05c-38.95-52.04-91.34-77.31-171.08-78.31
		c-33.53-1.17-76.93,14.04-112.95,45.84c-39.89,35.27-63.08,76.51-71.37,122.21c-3.61-1.24-7.49-1.91-11.53-1.91h-19.07
		c-5.59,0-11.94,1.12-18.3,4.56c-5.11-2.96-11.06-4.56-17.39-4.56h-18.06c3.26-11.5,6.41-23.05,9.45-34.64
		c6.14-23.28,8.31-47.57,11.61-67.25c-2.14-80.74-20.55-152.51-65.39-214.94c-102.85-143.19-275.55-156.52-393.01-93.53
		c-45.44,24.39-80.76,59.74-109.87,101.73c-6.89,9.9-12.32,20.91-20.03,30.04c-3.09,3.69-11.11,6.34-15.77,5.12
		c-15.57-3.91-30.6-10.09-45.91-14.97c-72.38-23.02-143.43-17.8-212.06,13.24c-85.44,38.7-144.6,112.69-168.21,197.5h-35.09
		c-7.76,0-26.75,3.05-35.61,31.26l-8.17,26.02c-1.2,3.83-4.19,13.32-1.96,23.42c-4.37-1.96-9.24-3-14.35-3h-19.07
		c-13.14,0-30.49,6.23-42.25,34.06c-0.06-0.07-0.13-0.13-0.2-0.2c-0.16-0.17-0.32-0.35-0.48-0.52c-0.16-0.17-0.32-0.35-0.48-0.52
		c-0.16-0.17-0.32-0.35-0.48-0.52c-0.16-0.17-0.32-0.35-0.48-0.52c-0.16-0.17-0.32-0.35-0.48-0.52c-0.16-0.17-0.32-0.35-0.48-0.52
		c-0.16-0.17-0.32-0.35-0.48-0.52c-0.16-0.17-0.32-0.35-0.48-0.52c-0.16-0.17-0.32-0.35-0.48-0.52c-0.16-0.17-0.32-0.35-0.48-0.52
		c-0.16-0.17-0.32-0.35-0.48-0.52c-0.16-0.17-0.32-0.35-0.48-0.52c-0.16-0.17-0.32-0.35-0.48-0.52c-0.16-0.17-0.32-0.35-0.48-0.52
		c-0.16-0.17-0.32-0.35-0.48-0.52c-0.16-0.17-0.32-0.35-0.48-0.52c-0.16-0.17-0.32-0.35-0.48-0.52c-0.16-0.17-0.32-0.35-0.48-0.52
		c-0.16-0.17-0.32-0.35-0.48-0.52c-0.16-0.17-0.32-0.35-0.48-0.52c-0.16-0.17-0.32-0.35-0.48-0.52c-0.16-0.17-0.32-0.35-0.48-0.52
		c-0.16-0.17-0.32-0.35-0.48-0.52c-0.16-0.17-0.32-0.35-0.48-0.52c-0.16-0.17-0.32-0.35-0.48-0.52c-0.16-0.17-0.32-0.35-0.48-0.51
		c-0.16-0.17-0.32-0.35-0.48-0.52c-0.16-0.17-0.32-0.35-0.48-0.52c-0.16-0.17-0.32-0.35-0.48-0.52c-0.16-0.17-0.32-0.35-0.48-0.52
		c-0.16-0.17-0.32-0.35-0.48-0.52c-0.16-0.17-0.32-0.35-0.48-0.52c-0.16-0.17-0.32-0.35-0.48-0.52c-0.16-0.17-0.32-0.35-0.48-0.52
		c-0.16-0.17-0.32-0.35-0.48-0.52c-0.16-0.17-0.32-0.35-0.48-0.52c-0.16-0.17-0.32-0.35-0.48-0.52c-0.16-0.17-0.32-0.35-0.48-0.52
		c-0.16-0.17-0.32-0.35-0.48-0.52c-0.16-0.17-0.32-0.35-0.48-0.52c-0.16-0.17-0.32-0.35-0.48-0.52c-0.16-0.17-0.32-0.35-0.48-0.52
		c-0.16-0.17-0.32-0.35-0.48-0.52c-0.16-0.17-0.32-0.35-0.48-0.52c-0.16-0.17-0.32-0.35-0.48-0.52
		c-6.22-6.78-15.09-10.62-24.85-10.62h-12.36c-1.04-4.22-2.83-8.33-5.63-12.15c-0.85-1.15-1.77-2.23-2.74-3.25
		c-0.16-0.17-0.32-0.35-0.48-0.52c-0.16-0.17-0.32-0.35-0.48-0.52c-0.16-0.17-0.32-0.35-0.48-0.52c-0.16-0.17-0.32-0.35-0.48-0.52
		c-0.16-0.17-0.32-0.35-0.48-0.52c-0.16-0.17-0.32-0.35-0.48-0.52c-0.16-0.17-0.32-0.35-0.48-0.52c-0.16-0.17-0.32-0.35-0.48-0.52
		c-0.16-0.17-0.32-0.35-0.48-0.52c-0.16-0.17-0.32-0.35-0.48-0.52c-0.16-0.17-0.32-0.35-0.48-0.52c-0.16-0.17-0.32-0.35-0.48-0.52
		c-0.16-0.17-0.32-0.35-0.48-0.52c-0.16-0.17-0.32-0.35-0.48-0.52c-0.16-0.17-0.32-0.35-0.48-0.52c-0.16-0.17-0.32-0.35-0.48-0.52
		c-0.16-0.17-0.32-0.35-0.48-0.52c-0.16-0.17-0.32-0.35-0.48-0.52c-0.16-0.17-0.32-0.35-0.48-0.52c-0.16-0.17-0.32-0.35-0.48-0.52
		c-0.16-0.17-0.32-0.35-0.48-0.52c-0.16-0.17-0.32-0.35-0.48-0.52c-0.16-0.17-0.32-0.35-0.48-0.52c-0.16-0.17-0.32-0.35-0.48-0.52
		c-0.16-0.17-0.32-0.35-0.48-0.52c-0.16-0.17-0.32-0.35-0.48-0.52c-0.16-0.17-0.32-0.35-0.48-0.52c-0.16-0.17-0.32-0.35-0.48-0.52
		c-0.16-0.17-0.32-0.35-0.48-0.52c-0.16-0.17-0.32-0.35-0.48-0.52c-0.16-0.17-0.32-0.35-0.48-0.52c-0.16-0.17-0.32-0.35-0.48-0.52
		c-0.16-0.17-0.32-0.35-0.48-0.51c-0.16-0.17-0.32-0.35-0.48-0.52c-0.16-0.17-0.32-0.35-0.48-0.52c-0.16-0.17-0.32-0.35-0.48-0.52
		c-0.16-0.17-0.32-0.35-0.48-0.52c-0.16-0.17-0.32-0.35-0.48-0.51c-0.16-0.17-0.32-0.35-0.48-0.52c-0.16-0.17-0.32-0.35-0.48-0.52
		c-0.16-0.17-0.32-0.35-0.48-0.52c-0.16-0.17-0.32-0.35-0.48-0.52c-0.16-0.17-0.32-0.35-0.48-0.52c-0.16-0.17-0.32-0.35-0.48-0.52
		c-0.16-0.17-0.32-0.35-0.48-0.52c-0.16-0.17-0.32-0.35-0.48-0.52c-0.16-0.17-0.32-0.35-0.48-0.52c-0.16-0.17-0.32-0.35-0.48-0.52
		c-0.16-0.17-0.32-0.35-0.48-0.52c-0.16-0.17-0.32-0.35-0.48-0.52c-0.16-0.17-0.32-0.35-0.48-0.52c-0.16-0.17-0.32-0.35-0.48-0.52
		c-0.16-0.17-0.32-0.35-0.48-0.52c-0.16-0.17-0.32-0.35-0.48-0.52c-0.16-0.17-0.32-0.35-0.48-0.52c-0.16-0.17-0.32-0.35-0.48-0.52
		c-0.16-0.17-0.32-0.35-0.48-0.52c-0.16-0.17-0.32-0.35-0.48-0.52c-0.16-0.17-0.32-0.35-0.48-0.51c-0.16-0.17-0.32-0.35-0.48-0.52
		c-0.16-0.17-0.32-0.35-0.48-0.52c-0.16-0.17-0.32-0.35-0.48-0.52c-0.16-0.17-0.32-0.35-0.48-0.52c-0.16-0.17-0.32-0.35-0.48-0.52
		c-0.16-0.17-0.32-0.35-0.48-0.52c-0.16-0.17-0.32-0.35-0.48-0.52c-0.16-0.17-0.32-0.35-0.48-0.52c-0.16-0.17-0.32-0.35-0.48-0.52
		c-0.16-0.17-0.32-0.35-0.48-0.52c-0.16-0.17-0.32-0.35-0.48-0.52c-0.16-0.17-0.32-0.35-0.48-0.52c-0.16-0.17-0.32-0.35-0.48-0.52
		c-0.16-0.17-0.32-0.35-0.48-0.52c-0.16-0.17-0.32-0.35-0.48-0.52c-0.16-0.17-0.32-0.35-0.48-0.52c-0.16-0.17-0.32-0.35-0.48-0.52
		c-0.16-0.17-0.32-0.35-0.48-0.52c-0.16-0.17-0.32-0.35-0.48-0.52c-0.16-0.17-0.32-0.35-0.48-0.52c-0.16-0.17-0.32-0.35-0.48-0.52
		c-0.16-0.17-0.32-0.35-0.48-0.51c-0.16-0.17-0.32-0.35-0.48-0.52c-0.16-0.17-0.32-0.35-0.48-0.52c-0.16-0.17-0.32-0.35-0.48-0.52
		c-0.16-0.17-0.32-0.35-0.48-0.52c-0.16-0.17-0.32-0.35-0.48-0.52c-0.16-0.17-0.32-0.35-0.48-0.52c-0.16-0.17-0.32-0.35-0.48-0.52
		c-0.16-0.17-0.32-0.35-0.48-0.52c-0.16-0.17-0.32-0.35-0.48-0.52c-0.16-0.17-0.32-0.35-0.48-0.52c-0.16-0.17-0.32-0.35-0.48-0.52
		c-0.16-0.17-0.32-0.35-0.48-0.52c-0.16-0.17-0.32-0.35-0.48-0.52c-0.16-0.17-0.32-0.35-0.48-0.52c-0.16-0.17-0.32-0.35-0.48-0.52
		c-0.16-0.17-0.32-0.35-0.48-0.52c-0.16-0.17-0.32-0.35-0.48-0.52c-0.16-0.17-0.32-0.35-0.48-0.52c-0.16-0.17-0.32-0.35-0.48-0.52
		c-6.25-6.81-15.16-10.66-24.97-10.66H487.28c-10.25,0-20.63,4-30.97,11.98c-15.73,12.27-27.48,31.28-35.91,58.13l-10.71,34.08
		c-17.86,2.59-33.52,15.66-46.66,39.01c-5.64,10.08-10.13,20.39-13.35,30.62l-24.52,78.05c-3.3,10.49-5.33,21.17-6.06,31.83
		c-1.22,18.58,2.61,32.33,11.71,42.04c0.09,0.09,0.18,0.18,0.26,0.27c0.07,0.08,0.14,0.17,0.22,0.25c0.09,0.09,0.18,0.18,0.26,0.27
		c0.07,0.08,0.14,0.17,0.22,0.25c0.09,0.09,0.18,0.18,0.26,0.27c0.08,0.08,0.14,0.17,0.22,0.25c0.09,0.09,0.18,0.18,0.26,0.27
		c0.08,0.08,0.14,0.17,0.22,0.25c0.09,0.09,0.18,0.18,0.26,0.27c0.07,0.08,0.14,0.17,0.22,0.25c0.09,0.09,0.18,0.18,0.26,0.27
		c0.07,0.08,0.14,0.17,0.22,0.25c0.09,0.09,0.18,0.18,0.26,0.27c0.08,0.08,0.14,0.17,0.22,0.25c0.09,0.09,0.18,0.18,0.26,0.27
		c0.07,0.08,0.14,0.17,0.22,0.25c0.09,0.09,0.18,0.18,0.26,0.27c0.07,0.08,0.14,0.17,0.22,0.25c0.09,0.09,0.18,0.18,0.26,0.27
		c0.08,0.08,0.14,0.17,0.22,0.25c0.09,0.09,0.18,0.18,0.26,0.27c0.08,0.08,0.14,0.17,0.22,0.25c0.09,0.09,0.18,0.18,0.26,0.27
		c0.07,0.08,0.14,0.17,0.22,0.25c0.09,0.09,0.18,0.18,0.26,0.27c0.07,0.08,0.14,0.17,0.22,0.25c0.09,0.09,0.18,0.18,0.26,0.27
		c0.07,0.08,0.14,0.17,0.22,0.25c0.09,0.09,0.18,0.18,0.26,0.27c0.08,0.08,0.14,0.17,0.22,0.25c0.09,0.09,0.18,0.18,0.26,0.27
		c0.08,0.08,0.14,0.17,0.22,0.25c0.09,0.09,0.18,0.18,0.26,0.27c0.07,0.08,0.14,0.17,0.22,0.25c0.09,0.09,0.18,0.18,0.26,0.27
		c0.07,0.08,0.14,0.17,0.22,0.25c0.09,0.09,0.18,0.18,0.26,0.27c0.07,0.08,0.14,0.17,0.22,0.25c0.09,0.09,0.18,0.18,0.26,0.27
		c0.08,0.08,0.14,0.17,0.22,0.25c0.09,0.09,0.18,0.18,0.26,0.27c0.07,0.08,0.14,0.17,0.22,0.25c0.09,0.09,0.18,0.18,0.26,0.27
		c0.07,0.08,0.14,0.17,0.22,0.25c0.09,0.09,0.18,0.18,0.26,0.27c0.07,0.08,0.14,0.17,0.22,0.25c0.09,0.09,0.18,0.18,0.26,0.27
		c0.08,0.08,0.14,0.17,0.22,0.25c0.09,0.09,0.18,0.18,0.26,0.27c0.07,0.08,0.14,0.17,0.22,0.25c0.09,0.09,0.18,0.18,0.26,0.27
		c0.08,0.08,0.14,0.17,0.22,0.25c0.09,0.09,0.18,0.18,0.26,0.27c0.07,0.08,0.14,0.17,0.22,0.25c0.09,0.09,0.18,0.18,0.26,0.27
		c0.07,0.08,0.14,0.17,0.22,0.25c0.09,0.09,0.18,0.18,0.26,0.27c0.08,0.08,0.14,0.17,0.22,0.25c0.09,0.09,0.18,0.18,0.26,0.27
		c0.07,0.08,0.14,0.17,0.22,0.25c0.09,0.09,0.18,0.18,0.26,0.27c0.08,0.08,0.14,0.17,0.22,0.25c0.09,0.09,0.18,0.18,0.26,0.27
		c0.07,0.08,0.14,0.17,0.22,0.25c0.09,0.09,0.18,0.18,0.26,0.27c0.08,0.08,0.14,0.17,0.22,0.25c0.09,0.09,0.18,0.18,0.26,0.27
		c0.07,0.08,0.14,0.17,0.22,0.25c0.09,0.09,0.18,0.18,0.26,0.27c0.07,0.08,0.14,0.17,0.22,0.25c0.09,0.09,0.18,0.18,0.26,0.27
		c0.08,0.08,0.14,0.17,0.22,0.25c0.09,0.09,0.18,0.18,0.26,0.27c0.08,0.08,0.14,0.17,0.22,0.25c0.09,0.09,0.18,0.18,0.26,0.27
		c0.07,0.08,0.14,0.17,0.22,0.25c0.09,0.09,0.18,0.18,0.26,0.27c0.07,0.08,0.14,0.17,0.22,0.25c0.09,0.09,0.18,0.18,0.26,0.27
		c0.07,0.08,0.14,0.17,0.22,0.25c0.09,0.09,0.18,0.18,0.26,0.27c0.07,0.08,0.14,0.17,0.22,0.25c0.09,0.09,0.18,0.18,0.26,0.27
		c0.08,0.08,0.14,0.17,0.22,0.25c0.09,0.09,0.18,0.18,0.26,0.27c0.07,0.08,0.14,0.17,0.22,0.25c0.09,0.09,0.18,0.18,0.26,0.27
		c0.07,0.08,0.14,0.17,0.22,0.25c0.09,0.09,0.18,0.18,0.26,0.27c0.07,0.08,0.14,0.17,0.22,0.25c0.09,0.09,0.18,0.18,0.26,0.27
		c0.08,0.08,0.14,0.17,0.22,0.25c0.09,0.09,0.18,0.18,0.26,0.27c0.08,0.08,0.14,0.17,0.22,0.25c0.09,0.09,0.18,0.18,0.26,0.27
		c0.07,0.08,0.14,0.17,0.22,0.25c0.09,0.09,0.18,0.18,0.26,0.27c0.07,0.08,0.14,0.17,0.22,0.25c0.09,0.09,0.18,0.18,0.26,0.27
		c0.08,0.08,0.14,0.17,0.22,0.25c0.09,0.09,0.18,0.18,0.26,0.27c0.07,0.08,0.14,0.17,0.22,0.25c0.09,0.09,0.18,0.18,0.26,0.27
		c0.08,0.08,0.14,0.17,0.22,0.25c0.09,0.09,0.18,0.18,0.26,0.27c0.07,0.08,0.14,0.17,0.22,0.25c0.09,0.09,0.18,0.18,0.26,0.27
		c0.07,0.08,0.14,0.17,0.22,0.25c0.09,0.09,0.18,0.18,0.26,0.27c0.08,0.08,0.14,0.17,0.22,0.25c0.09,0.09,0.18,0.18,0.26,0.27
		c0.07,0.08,0.14,0.17,0.22,0.25c0.09,0.09,0.18,0.18,0.26,0.27c0.07,0.08,0.14,0.17,0.22,0.25c0.09,0.09,0.18,0.18,0.26,0.27
		c0.08,0.08,0.14,0.17,0.22,0.25c0.09,0.09,0.18,0.18,0.26,0.27c0.08,0.08,0.14,0.17,0.22,0.25c0.09,0.09,0.18,0.18,0.26,0.27
		c0.07,0.08,0.14,0.17,0.22,0.25c0.09,0.09,0.18,0.18,0.26,0.27c0.07,0.08,0.14,0.17,0.22,0.25c0.09,0.09,0.18,0.18,0.26,0.27
		c0.07,0.08,0.14,0.17,0.22,0.25c0.09,0.09,0.18,0.18,0.26,0.27c0.08,0.08,0.14,0.17,0.22,0.25c0.09,0.09,0.18,0.18,0.26,0.27
		c0.07,0.08,0.14,0.17,0.22,0.25c0.09,0.09,0.18,0.18,0.26,0.27c0.07,0.08,0.14,0.17,0.22,0.25c0.09,0.09,0.18,0.18,0.26,0.27
		c0.07,0.08,0.14,0.17,0.22,0.25c0.09,0.09,0.18,0.18,0.26,0.27c0.07,0.08,0.14,0.17,0.22,0.25c0.09,0.09,0.18,0.18,0.26,0.27
		c0.08,0.08,0.14,0.17,0.22,0.25c0.09,0.09,0.18,0.18,0.26,0.27c0.07,0.08,0.14,0.17,0.22,0.25c0.09,0.09,0.18,0.18,0.26,0.27
		c0.07,0.08,0.14,0.17,0.22,0.25c0.09,0.09,0.18,0.18,0.26,0.27c0.07,0.08,0.14,0.17,0.22,0.25c0.09,0.09,0.18,0.18,0.26,0.27
		c0.08,0.08,0.14,0.17,0.22,0.25c0.09,0.09,0.18,0.18,0.26,0.27c0.07,0.08,0.14,0.17,0.22,0.25c0.09,0.09,0.18,0.18,0.26,0.27
		c0.08,0.08,0.14,0.17,0.22,0.25c0.09,0.09,0.18,0.18,0.26,0.27c0.07,0.08,0.14,0.17,0.22,0.25c0.09,0.09,0.18,0.18,0.26,0.27
		c0.08,0.08,0.14,0.17,0.22,0.25c0.09,0.09,0.18,0.18,0.26,0.27c0.07,0.08,0.14,0.17,0.22,0.25c0.09,0.09,0.18,0.18,0.26,0.27
		c0.07,0.08,0.14,0.17,0.22,0.25c0.09,0.09,0.18,0.18,0.26,0.27c0.08,0.08,0.14,0.17,0.22,0.25c0.09,0.09,0.18,0.18,0.26,0.27
		c0.07,0.08,0.14,0.17,0.22,0.25c0.09,0.09,0.18,0.18,0.26,0.27c0.08,0.08,0.14,0.17,0.22,0.25c0.09,0.09,0.18,0.18,0.26,0.27
		c0.07,0.08,0.14,0.17,0.22,0.25c0.09,0.09,0.18,0.18,0.26,0.27c0.07,0.08,0.14,0.17,0.22,0.25c0.09,0.09,0.18,0.18,0.26,0.27
		c0.08,0.08,0.14,0.17,0.22,0.25c0.09,0.09,0.18,0.18,0.26,0.27c0.08,0.08,0.14,0.17,0.22,0.25c0.09,0.09,0.18,0.18,0.26,0.27
		c0.07,0.08,0.14,0.17,0.22,0.25c0.09,0.09,0.18,0.18,0.26,0.27c0.07,0.08,0.14,0.17,0.22,0.25c0.09,0.09,0.18,0.18,0.26,0.27
		c0.07,0.08,0.14,0.17,0.22,0.25c0.09,0.09,0.18,0.18,0.26,0.27c0.08,0.08,0.14,0.17,0.22,0.25c0.09,0.09,0.18,0.18,0.26,0.27
		c0.08,0.08,0.14,0.17,0.22,0.25c0.09,0.09,0.18,0.18,0.26,0.27c0.07,0.08,0.14,0.17,0.22,0.25c0.09,0.09,0.18,0.18,0.26,0.27
		c0.07,0.08,0.14,0.17,0.22,0.25c0.09,0.09,0.18,0.18,0.26,0.27c0.07,0.08,0.14,0.17,0.22,0.25c0.09,0.09,0.18,0.18,0.26,0.27
		c0.08,0.08,0.14,0.17,0.22,0.25c0.09,0.09,0.18,0.18,0.26,0.27c0.08,0.08,0.14,0.17,0.22,0.25c0.09,0.09,0.18,0.18,0.26,0.27
		c0.07,0.08,0.14,0.17,0.22,0.25c0.09,0.09,0.18,0.18,0.26,0.27c0.07,0.08,0.14,0.17,0.22,0.25c0.09,0.09,0.18,0.18,0.26,0.27
		c0.08,0.08,0.14,0.17,0.22,0.25c0.09,0.09,0.18,0.18,0.26,0.27c0.07,0.08,0.14,0.17,0.22,0.25c0.09,0.09,0.18,0.18,0.26,0.27
		c0.08,0.08,0.14,0.17,0.22,0.25c0.09,0.09,0.18,0.18,0.26,0.27c0.07,0.08,0.14,0.17,0.22,0.25c7.26,7.75,17.41,12.02,28.6,12.02
		h165.5c14.64,0,34.51-7.71,46.05-44.45l3.31-10.53c5.89,2.68,11.37,3.3,15.16,3.3h3.14c0.07,0.08,0.15,0.15,0.22,0.23
		c0.16,0.17,0.32,0.35,0.48,0.52c0.16,0.17,0.32,0.35,0.48,0.52c0.16,0.17,0.32,0.35,0.48,0.52c0.16,0.17,0.32,0.35,0.48,0.52
		c0.16,0.17,0.32,0.35,0.48,0.52c0.16,0.17,0.32,0.35,0.48,0.52c0.16,0.17,0.32,0.35,0.48,0.52c0.16,0.17,0.32,0.35,0.48,0.52
		c0.16,0.17,0.32,0.35,0.48,0.52c0.16,0.17,0.32,0.35,0.48,0.52c0.16,0.17,0.32,0.35,0.48,0.52c0.16,0.17,0.32,0.35,0.48,0.52
		c0.16,0.17,0.32,0.35,0.48,0.52c0.16,0.17,0.32,0.35,0.48,0.52c0.16,0.17,0.32,0.35,0.48,0.52c0.16,0.17,0.32,0.35,0.48,0.52
		c0.16,0.17,0.32,0.35,0.48,0.52c0.16,0.17,0.32,0.35,0.48,0.52c0.16,0.17,0.32,0.35,0.48,0.52c0.16,0.17,0.32,0.35,0.48,0.52
		c0.16,0.17,0.32,0.35,0.48,0.52c0.16,0.17,0.32,0.35,0.48,0.52c0.16,0.17,0.32,0.35,0.48,0.52c0.16,0.17,0.32,0.35,0.48,0.52
		c0.16,0.17,0.32,0.35,0.48,0.52c0.16,0.17,0.32,0.35,0.48,0.52c0.16,0.17,0.32,0.35,0.48,0.52c0.16,0.17,0.32,0.35,0.48,0.52
		c0.16,0.17,0.32,0.35,0.48,0.52c0.16,0.17,0.32,0.35,0.48,0.52c0.16,0.17,0.32,0.35,0.48,0.52c0.16,0.17,0.32,0.35,0.48,0.52
		c0.16,0.17,0.32,0.35,0.48,0.52c0.16,0.17,0.32,0.35,0.48,0.52c0.16,0.17,0.32,0.35,0.48,0.52c0.16,0.17,0.32,0.35,0.48,0.52
		c0.16,0.17,0.32,0.35,0.48,0.52c0.16,0.17,0.32,0.35,0.48,0.52c0.16,0.17,0.32,0.35,0.48,0.52c0.16,0.17,0.32,0.35,0.48,0.52
		c0.16,0.17,0.32,0.35,0.48,0.51c0.16,0.17,0.32,0.35,0.48,0.52c0.16,0.17,0.32,0.35,0.48,0.52c0.16,0.17,0.32,0.35,0.48,0.52
		c0.16,0.17,0.32,0.35,0.48,0.52c0.16,0.17,0.32,0.35,0.48,0.51c0.16,0.17,0.32,0.35,0.48,0.52c0.16,0.17,0.32,0.35,0.48,0.52
		c0.16,0.17,0.32,0.35,0.48,0.52c0.16,0.17,0.32,0.35,0.48,0.52c0.16,0.17,0.32,0.35,0.48,0.52c0.16,0.17,0.32,0.35,0.48,0.52
		c0.16,0.17,0.32,0.35,0.48,0.52c0.16,0.17,0.32,0.35,0.48,0.52c0.16,0.17,0.32,0.35,0.48,0.52c0.16,0.17,0.32,0.35,0.48,0.52
		c0.16,0.17,0.32,0.35,0.48,0.52c0.16,0.17,0.32,0.35,0.48,0.52c0.16,0.17,0.32,0.35,0.48,0.52c0.16,0.17,0.32,0.35,0.48,0.52
		c0.16,0.17,0.32,0.35,0.48,0.52c0.16,0.17,0.32,0.35,0.48,0.52c0.16,0.17,0.32,0.35,0.48,0.52c0.16,0.17,0.32,0.35,0.48,0.52
		c0.16,0.17,0.32,0.35,0.48,0.52c0.16,0.17,0.32,0.35,0.48,0.52c0.16,0.17,0.32,0.35,0.48,0.52c0.16,0.17,0.32,0.35,0.48,0.52
		c0.16,0.17,0.32,0.35,0.48,0.52c0.16,0.17,0.32,0.35,0.48,0.52c0.16,0.17,0.32,0.35,0.48,0.52c0.16,0.17,0.32,0.35,0.48,0.52
		c0.16,0.17,0.32,0.35,0.48,0.52c0.16,0.17,0.32,0.35,0.48,0.52c0.16,0.17,0.32,0.35,0.48,0.52c0.16,0.17,0.32,0.35,0.48,0.52
		c0.16,0.17,0.32,0.35,0.48,0.52c0.16,0.17,0.32,0.35,0.48,0.52c0.16,0.17,0.32,0.35,0.48,0.52c6.25,6.81,15.16,10.66,24.97,10.66
		h12.77c20.12,0,35.51-14.65,45.75-43.54c0.11-0.3,0.21-0.6,0.3-0.91c0.27-0.86,0.53-1.65,0.79-2.38c0.01,0.01,0.02,0.02,0.02,0.02
		c0.16,0.17,0.32,0.35,0.48,0.52c0.16,0.17,0.32,0.35,0.48,0.52c0.16,0.17,0.32,0.35,0.48,0.52c0.16,0.17,0.32,0.35,0.48,0.52
		c0.16,0.17,0.32,0.35,0.48,0.52c0.16,0.17,0.32,0.35,0.48,0.52c0.16,0.17,0.32,0.35,0.48,0.52c0.16,0.17,0.32,0.35,0.48,0.52
		c0.16,0.17,0.32,0.35,0.48,0.52c0.16,0.17,0.32,0.35,0.48,0.52c0.16,0.17,0.32,0.35,0.48,0.52c0.16,0.17,0.32,0.35,0.48,0.52
		c0.16,0.17,0.32,0.35,0.48,0.52c0.16,0.17,0.32,0.35,0.48,0.52c0.16,0.17,0.32,0.35,0.48,0.52c0.16,0.17,0.32,0.35,0.48,0.52
		c0.16,0.17,0.32,0.35,0.48,0.52c0.16,0.17,0.32,0.35,0.48,0.52c0.16,0.17,0.32,0.35,0.48,0.52c0.16,0.17,0.32,0.35,0.48,0.52
		c0.16,0.17,0.32,0.35,0.48,0.52c0.16,0.17,0.32,0.35,0.48,0.52c0.16,0.17,0.32,0.35,0.48,0.52c0.16,0.17,0.32,0.35,0.48,0.52
		c0.16,0.17,0.32,0.35,0.48,0.52c0.16,0.17,0.32,0.35,0.48,0.52c0.16,0.17,0.32,0.35,0.48,0.52c0.16,0.17,0.32,0.35,0.48,0.52
		c0.16,0.17,0.32,0.35,0.48,0.52c0.16,0.17,0.32,0.35,0.48,0.52c0.16,0.17,0.32,0.35,0.48,0.52c0.16,0.17,0.32,0.35,0.48,0.51
		c0.16,0.17,0.32,0.35,0.48,0.52c0.16,0.17,0.32,0.35,0.48,0.52c0.16,0.17,0.32,0.35,0.48,0.52c0.16,0.17,0.32,0.35,0.48,0.52
		c0.16,0.17,0.32,0.35,0.48,0.51c0.16,0.17,0.32,0.35,0.48,0.52c0.16,0.17,0.32,0.35,0.48,0.52c0.16,0.17,0.32,0.35,0.48,0.52
		c0.16,0.17,0.32,0.35,0.48,0.52c0.16,0.17,0.32,0.35,0.48,0.52c0.16,0.17,0.32,0.35,0.48,0.52c0.16,0.17,0.32,0.35,0.48,0.52
		c0.16,0.17,0.32,0.35,0.48,0.52c0.16,0.17,0.32,0.35,0.48,0.52c0.16,0.17,0.32,0.35,0.48,0.52c0.16,0.17,0.32,0.35,0.48,0.52
		c0.16,0.17,0.32,0.35,0.48,0.52c0.16,0.17,0.32,0.35,0.48,0.52c0.16,0.17,0.32,0.35,0.48,0.52c0.16,0.17,0.32,0.35,0.48,0.52
		c0.16,0.17,0.32,0.35,0.48,0.52c0.16,0.17,0.32,0.35,0.48,0.52c0.16,0.17,0.32,0.35,0.48,0.52c0.16,0.17,0.32,0.35,0.48,0.52
		c0.16,0.17,0.32,0.35,0.48,0.52c0.16,0.17,0.32,0.35,0.48,0.52c0.16,0.17,0.32,0.35,0.48,0.52c0.16,0.17,0.32,0.35,0.48,0.52
		c0.16,0.17,0.32,0.35,0.48,0.52c0.16,0.17,0.32,0.35,0.48,0.52c0.16,0.17,0.32,0.35,0.48,0.52c0.16,0.17,0.32,0.35,0.48,0.52
		c0.16,0.17,0.32,0.35,0.48,0.52c0.16,0.17,0.32,0.35,0.48,0.52c0.16,0.17,0.32,0.35,0.48,0.52c0.16,0.17,0.32,0.35,0.48,0.52
		c0.16,0.17,0.32,0.35,0.48,0.52c0.16,0.17,0.32,0.35,0.48,0.52c6.25,6.81,15.16,10.66,24.97,10.66h50.91
		c9.37,0,18.9-3.42,28.46-10.24c7.1,6.63,16.52,10.24,26.82,10.24h127.36c5.2,0,11.06-1,16.97-3.93
		c20.47,14.53,41.58,28.27,62.98,41.63c129.69,80.9,275.15,124,417.32,175.09c29.32,10.49,56.19,1.66,78.61-18.22
		c11.82-10.49,21.69-23.84,30.42-37.22c34.17-52.28,68.04-104.75,101.77-157.34h145.12c7.37,0,16.06-1.95,24.35-8.58
		c6.79,5.59,14.98,8.58,23.93,8.58h129.52c24.81,39.85,50.11,79.42,75.91,118.6c19.33,29.41,38.9,36.72,72.73,26.01
		c94.19-29.82,187.26-62.99,271.81-115.48c20.04-12.44,39.44-25.82,57.5-40.76c7.35,7.54,16.76,11.63,27.21,11.63h50.91
		c14.64,0,34.51-7.71,46.05-44.45l6.41-20.42h76.2c25.47,0,44.44-19.27,56.38-57.28l24.41-77.7
		C2857.35,1573,2861.56,1553.93,2850.77,1539.23z M2457.83,1564.87h-50.91c-8.4,0-15.32,8.68-20.77,26.02l-28.44,90.53
		c-5.45,17.35-12.43,26.02-20.94,26.02h-19.07c-8.51,0-10.05-8.67-4.6-26.02l40.64-129.38c6.79-21.62,15.82-36.83,27.1-45.62
		c5.54-4.28,10.41-6.41,14.61-6.41h152.73c10.5,0,15.18,8.68,14.05,26.02c-0.62,9.03-2.24,17.7-4.85,26.02l-16.23,51.68
		c-5.45,17.35-12.43,26.02-20.94,26.02H2463c-8.51,0-10.05-8.67-4.6-26.02l4.03-12.83
		C2467.88,1573.54,2466.34,1564.87,2457.83,1564.87z M2207.44,1681.41c-5.45,17.35-12.43,26.02-20.94,26.02h-69.98
		c-4.2,0-7.73-2.14-10.58-6.41c-5.76-8.79-5.27-23.88,1.45-45.26l32.58-103.71c2.76-8.79,6.53-17.46,11.32-26.02
		c9.76-17.34,19.89-26.02,30.39-26.02h152.73c10.5,0,15.18,8.68,14.05,26.02c-0.62,9.03-2.24,17.7-4.85,26.02l-40.64,129.38
		c-5.45,17.35-12.43,26.02-20.94,26.02h-69.98C2203.53,1707.43,2201.99,1698.76,2207.44,1681.41z M1543.98,1590.88h139.96
		c8.51,0,10.08,8.55,4.71,25.66l-20.38,64.87c-5.45,17.35-12.43,26.02-20.94,26.02h-146.25c-4.32,0-7.82,4.28-10.5,12.83
		l-12.2,38.85c-5.45,17.34-12.43,26.02-20.94,26.02h-12.6c-8.52,0-10.05-8.68-4.6-26.02l65.05-207.07
		c2.76-8.79,6.53-17.46,11.32-26.02c9.76-17.34,19.89-26.02,30.39-26.02h165.5c8.51,0,10.04,8.68,4.6,26.02l-4.03,12.83
		c-5.45,17.35-12.43,26.02-20.94,26.02h-139.96c-3.97,0-7.41,4.28-10.33,12.83C1539.3,1586.49,1540.02,1590.88,1543.98,1590.88z
		 M1254.01,1681.41c0.59-8.55,2.22-17.11,4.91-25.66l32.58-103.71c6.79-21.62,15.82-36.83,27.1-45.62
		c5.54-4.28,10.41-6.41,14.61-6.41h152.73c4.31,0,7.9,2.14,10.76,6.41c5.75,8.79,5.23,24-1.56,45.62l-32.58,103.71
		c-2.54,8.08-6.33,16.64-11.38,25.66c-9.77,17.35-19.89,26.02-30.39,26.02h-152.73C1257.56,1707.43,1252.87,1698.76,1254.01,1681.41
		z M845.26,1461.15l8.17-26.02c2.69-8.56,6.19-12.83,10.5-12.83h63.5c4.31,0,5.13,4.28,2.44,12.83l-8.17,26.02
		c-2.69,8.55-6.19,12.83-10.5,12.83h-63.5C843.38,1473.98,842.57,1469.7,845.26,1461.15z M467.3,1526.02h76.45
		c3.85,0,4.61,4.28,2.27,12.83c-3.11,8.79-6.59,13.19-10.44,13.19H427.46c-3.97,0-7.47,4.28-10.5,12.83
		c-2.34,8.55-1.52,12.83,2.44,12.83h146.25c8.51,0,10.04,8.68,4.6,26.02l-24.41,77.7c-5.45,17.35-12.43,26.02-20.94,26.02h-165.5
		c-10.5,0-15.18-8.67-14.04-26.02c0.59-8.55,2.22-17.11,4.91-25.66l24.52-78.05c2.69-8.55,6.42-17.11,11.21-25.66
		c9.76-17.34,19.89-26.02,30.39-26.02h6.47c4.2,0,7.64-4.28,10.33-12.83l12.32-39.2c6.72-21.39,15.71-36.47,26.99-45.26
		c5.54-4.28,10.47-6.41,14.79-6.41H601.7c8.51,0,10.05,8.68,4.6,26.02l-8.06,25.66c-5.45,17.35-12.43,26.02-20.94,26.02H475.47
		c-3.85,0-7.33,4.4-10.44,13.19C462.7,1521.74,463.45,1526.02,467.3,1526.02z M742.15,1655.75h-31.84c-8.4,0-15.28,8.55-20.66,25.66
		c-6.15,17.35-13.13,26.02-20.94,26.02h-12.77c-8.51,0-10.05-8.67-4.6-26.02c4.79-17.11,3.28-25.66-4.54-25.66h-57.38
		c-3.97,0-7.46-2.25-10.47-6.77c-5.75-8.79-5.27-23.88,1.45-45.26l24.41-77.7c5.45-17.34,12.43-26.02,20.94-26.02h69.98
		c8.4,0,9.87,8.68,4.43,26.02l-12.2,38.85c-5.45,17.35-3.92,26.02,4.6,26.02h38.14c8.51,0,15.49-8.67,20.94-26.02l12.2-38.85
		c5.45-17.34,12.43-26.02,20.94-26.02h19.07c8.51,0,10.04,8.68,4.6,26.02l-24.41,77.7c-2.61,8.32-6.45,16.99-11.5,26.02
		C762.77,1647.08,752.64,1655.75,742.15,1655.75z M839.89,1701.01c-5.54,4.28-10.41,6.41-14.61,6.41h-50.91
		c-8.51,0-10.05-8.67-4.6-26.02l20.38-64.87c5.37-17.11,12.32-25.66,20.83-25.66h25.37c3.96,0,7.5-4.39,10.61-13.19
		c2.34-8.55,1.52-12.83-2.44-12.83h-25.37c-8.51,0-10.05-8.67-4.6-26.02l4.03-12.83c5.45-17.34,12.43-26.02,20.94-26.02h63.5
		c8.51,0,10.05,8.68,4.6,26.02l-40.75,129.73C860.16,1677.13,851.16,1692.23,839.89,1701.01z M1007.92,1707.43H880.56
		c-10.5,0-15.18-8.67-14.04-26.02c0.59-8.55,2.22-17.11,4.91-25.66l65.16-207.43c5.45-17.34,12.43-26.02,20.94-26.02h12.6
		c8.51,0,10.05,8.68,4.6,26.02l-40.64,129.38c-2.76,8.79-1.99,13.19,2.33,13.19h108.12c8.4,0,9.91,8.55,4.54,25.66l-20.38,64.87
		C1023.24,1698.76,1016.31,1707.43,1007.92,1707.43z M1042.03,1707.43c-8.51,0-10.05-8.67-4.6-26.02l24.41-77.7
		c5.45-17.34,12.43-26.02,20.94-26.02h139.6c3.85,0,7.31-4.33,10.38-13.01c2.37-8.67,1.64-13.01-2.21-13.01H1096.9
		c-12.71,0-15.01-12.91-6.9-38.74l20.32-64.69c5.43-17.3,12.41-25.95,20.92-25.95h178.09c8.51,0,10.04,8.68,4.6,26.02l-8.06,25.66
		c-5.45,17.35-12.43,26.02-20.94,26.02H1132.2c-3.97,0-7.45,4.4-10.44,13.19c-2.45,8.55-1.7,12.83,2.27,12.83h146.43
		c12.71,0,15,12.95,6.86,38.85l-36.61,116.54c-5.45,17.35-12.43,26.02-20.94,26.02H1042.03z M1861.11,1707.43h-165.5
		c-10.5,0-15.18-8.67-14.04-26.02c0.59-8.55,2.22-17.11,4.91-25.66l65.16-207.43c5.45-17.34,12.43-26.02,20.94-26.02h12.6
		c8.51,0,10.04,8.68,4.6,26.02l-12.2,38.85c-2.69,8.55-1.87,12.83,2.44,12.83h146.25c8.51,0,10.05,8.68,4.6,26.02l-4.03,12.83
		c-5.45,17.35-12.43,26.02-20.94,26.02h-139.96c-3.97,0-7.41,4.28-10.33,12.83c-2.53,8.79-1.81,13.19,2.16,13.19h139.96
		c8.51,0,10.08,8.55,4.71,25.66l-20.38,64.87C1876.6,1698.76,1869.62,1707.43,1861.11,1707.43z M2070.6,1701.01
		c-5.54,4.28-10.47,6.41-14.79,6.41h-146.43c-4.2,0-7.73-2.14-10.58-6.41c-5.76-8.79-5.27-23.88,1.45-45.26l40.75-129.73
		c5.45-17.34,12.43-26.02,20.94-26.02h19.07c8.51,0,10.05,8.68,4.6,26.02l-32.58,103.72c-2.54,8.08-1.78,12.36,2.27,12.83
		c4.35-0.47,7.79-4.75,10.33-12.83l36.61-116.55c2.61-8.31,6.15-12.71,10.61-13.19c4.35-0.47,5.07,3.92,2.16,13.19l-36.61,116.55
		c-2.69,8.55-1.93,12.83,2.27,12.83h19.07c4.31,0,7.81-4.28,10.5-12.83l32.58-103.72c5.45-17.34,12.43-26.02,20.94-26.02h69.98
		c8.4,0,9.87,8.68,4.42,26.02l-40.75,129.73C2090.62,1677.37,2081.69,1692.46,2070.6,1701.01z M2779.33,1526.02l-24.41,77.7
		c-8.14,25.9-18.56,38.85-31.27,38.85h-89.22c-4.2,0-7.68,4.4-10.44,13.19l-8.06,25.66c-5.45,17.35-12.43,26.02-20.94,26.02h-50.91
		c-4.2,0-7.73-2.14-10.58-6.41c-5.75-8.79-5.27-23.88,1.45-45.26l32.58-103.71c2.76-8.79,6.54-17.46,11.32-26.02
		c9.76-17.34,19.89-26.02,30.39-26.02h165.5C2783.24,1500,2784.78,1508.68,2779.33,1526.02z"/>
	<path class="st0" d="M1442.46,1577.7c2.34-8.55,1.58-12.83-2.27-12.83h-50.91c-3.97,0-7.47,4.28-10.5,12.83
		c-2.41,8.79-1.64,13.19,2.33,13.19h50.91C1435.87,1590.88,1439.35,1586.49,1442.46,1577.7z"/>
	<path class="st0" d="M2237.75,1564.87h-50.91c-3.97,0-7.41,4.28-10.33,12.83c-2.53,8.79-1.81,13.19,2.16,13.19h50.91
		c4.2,0,4.95,4.28,2.27,12.83l-24.41,77.7l32.58-103.71C2242.71,1569.14,2241.95,1564.87,2237.75,1564.87z"/>
	<path class="st0" d="M344.57,1800.18c3.78-0.7,5.13-5.85,1.72-6.55c-69.24-14.14-78.91-32.66-60.21-139.59
		c0.71-4.06-5.23-4.06-6.65,0c-37.34,106.93-56.71,125.45-133.36,139.59c-3.78,0.7-5.13,5.85-1.72,6.55
		c69.24,14.14,78.91,32.66,60.21,139.59c-0.71,4.06,5.23,4.06,6.65,0C248.55,1832.84,267.92,1814.32,344.57,1800.18z"/>
	<path class="st0" d="M367.78,1907.03c-44.61-9.11-50.84-21.04-38.79-89.93c0.46-2.62-3.37-2.62-4.28,0
		c-24.05,68.89-36.53,80.82-85.91,89.93c-2.44,0.45-3.31,3.77-1.11,4.22c44.61,9.11,50.84,21.04,38.79,89.93
		c-0.46,2.62,3.37,2.62,4.28,0c24.05-68.89,36.53-80.82,85.92-89.93C369.11,1910.8,369.98,1907.48,367.78,1907.03z"/>
</g>
<g>
	<path class="st0" d="M4689.4,1557.56c0,8.85,0,15.07,0,21.95c3.15,0.78,6.32,1.56,9.82,2.42c0.25,3.24,0.49,6.31,0.79,10.18
		c34.63,0,69.03,0,104.21,0c0.77-2.82,1.64-5.99,2.62-9.6c2.97-0.39,5.97-0.78,9.66-1.26c0-65.53,0-130.7,0-196.79
		c4.26,0,7.78,0,11.87,0c0.52,3.22,1,6.22,1.56,9.68c3.32,0.54,6.67,1.08,10.33,1.67c0.72,3.51,1.4,6.85,2.16,10.52
		c3.1,0.58,6.11,1.15,10.05,1.88c0,22.58,0,45.13,0,68.78c15.74,0,30.57,0,46.14,0c0,7.96,0,14.81,0,22.3
		c3.6,0.52,6.54,0.94,10.05,1.44c0,2.99,0,5.93,0,9.6c-18.24,0-36.32,0-55.28,0c0,51.06,0,101.39,0,152.38c11.25,0,22.54,0,34.28,0
		c0.31-3.88,0.58-7.26,0.89-11.2c3.17-0.41,6.15-0.79,10.17-1.31c0-18.77,0-37.45,0-56.98c31.01,0,60.96,0,92.05,0
		c0-38.71,0-76.56,0-115.29c8.2,0,15.28,0,23.49,0c0.35,6.76,0.72,13.88,1.11,21.4c3.38,0.47,6.4,0.88,11,1.52
		c0,26.48,0,53.13,0,80.07c4.51,0.69,7.52,1.15,11.01,1.68c0.65,2.88,1.32,5.85,2.16,9.57c6.94,0,14.05,0,22.29,0
		c0-30.63,0-60.81,0-91.54c8.26,0,15.38,0,23.01,0c0.27,3.87,0.51,7.24,0.8,11.22c3.09,0.46,6.06,0.9,11.16,1.66
		c0,25.95,0,52.14,0,78.85c12.5,0,22.86,0,34.2,0c0-22.62,0-45.16,0-68.47c8.05,0,15.16,0,23.11,0c0.25,3.15,0.52,6.49,0.86,10.65
		c2.95,0.62,6.13,1.29,9.75,2.05c0,45.3,0,90.56,0,136.96c-80.53,0-161.04,0-242.32,0c-0.36,4.69-0.63,8.33-0.95,12.44
		c-3.79,0.32-7.17,0.61-11.24,0.96c-0.47,2.78-0.96,5.73-1.55,9.19c-6.17,1.14-12.52,2.31-19.59,3.62
		c-0.43,2.52-0.93,5.49-1.55,9.14c-11.21,0-22.58,0-34.58,0c-0.31-3.02-0.61-5.98-0.93-9.12c-7.3-1.18-14.07-2.27-21.75-3.5
		c-0.58-2.54-1.3-5.74-2.09-9.21c-3.19-0.36-6.24-0.71-9.63-1.1c-0.52-3.56-1.02-6.94-1.56-10.6c-50.11,0-100.03,0-150.69,0
		c0,8.27,0,15.14,0,22.59c-3.81,0.7-7.01,1.29-10.85,1.99c0,33.77,0,67.18,0,101.52c-11.95,0-23.2,0-35.52,0
		c0-42.04,0-84.1,0-126.29c-31.56,0-62.05,0-92.85,0c-0.87,4.33-1.52,7.55-2.21,11c-10.76,0-21.15,0-32.3,0
		c-0.41-3.12-0.8-6.07-1.44-10.93c-34.16,0-68.45,0-103.49,0c0-16.34,0-30.76,0-45.61c3.09-0.57,6.08-1.11,9.6-1.76
		c0.94-11.17,1.86-22.19,2.9-34.47c10.44,0,21.05,0,32.12,0c0.63-4.14,1.09-7.1,1.65-10.81c19.76,1.36,8.81-14.62,13.01-23.49
		c2.45-0.24,5.4-0.52,8.8-0.85c0.34-3.78,0.64-7.17,1.04-11.69c7.08,0,14.22,0,22.05,0c0.36-4,0.63-6.95,0.94-10.42
		c3.79-0.3,7.19-0.57,11.3-0.9c0.46-3.5,0.93-7.15,1.5-11.49c2.81-0.39,5.77-0.81,9.41-1.32c0.33-2.94,0.66-5.9,1.04-9.3
		c3.42,0,6.4,0,9.8,0c0.49,3.25,0.93,6.21,1.41,9.45c3.84,0.34,7.21,0.64,11.12,0.99c0.27,3.75,0.52,7.12,0.81,11.16
		c3.73,0.52,7.36,1.03,11.65,1.63c0.27,3.02,0.54,6,0.87,9.64c7.1,0,13.64,0,20.75,0c0.73,4.3,1.34,7.93,2.05,12.12
		c3.33,0.34,6.71,0.69,11.14,1.15c0,6.62,0,13.1,0,19.96c4.13,1.06,7.34,1.89,10.82,2.78c0.36,3.3,0.69,6.35,1.1,10.13
		c23.31,0,46.48,0,70.72,0c0-22.96,0-45.46,0-68.74c19.09,0,37.13,0,55.77,0c0.61-3.6,1.1-6.53,1.68-9.97
		c1.42-0.24,3.06-0.74,4.72-0.77c5.94-0.1,11.9-0.32,17.82,0.01c8.32,0.47,15.55,0.15,12.08-12.03c4.07,0,7.04,0,10.63,0
		c0,18.43,0,36.75,0,56.86C4735.28,1557.56,4712.81,1557.56,4689.4,1557.56z M4492.57,1570.01c-0.46,3.79-0.83,6.84-1.23,10.17
		c-3.95,0.54-7.63,1.05-11.43,1.57c0,15.71,0,30.92,0,46.1c3.49,0.68,6.48,1.27,9.47,1.86c0.53,3.44,0.99,6.43,1.51,9.88
		c11.5,0,22.53,0,34.01,0c0.58-3.46,1.13-6.71,1.7-10.13c4-0.5,7.36-0.92,10.92-1.36c0.47-3.77,0.89-7.14,1.32-10.55
		c3.4-0.66,6.39-1.24,9.63-1.87c0-3.35,0-6.32,0-9.67c-3.49-0.53-6.47-0.98-10.65-1.61c0-7.72,0-15.16,0-22.43
		c-4.61-0.87-7.98-1.5-11.41-2.14c-0.5-3.38-0.94-6.4-1.45-9.81C4514.24,1570.01,4503.88,1570.01,4492.57,1570.01z"/>
	<path class="st0" d="M5178.02,1673.1c0-11,0-21.37,0-32.37c3.69-0.36,7.06-0.69,11.61-1.13c0-11.14,0-22.48,0-34.37
		c4.01-0.56,6.96-0.97,10.43-1.46c0.47-3.14,0.92-6.13,1.57-10.46c6.98,0,14.09,0,21.62,0c0.65-4.56,1.12-7.89,1.63-11.47
		c3.25-0.64,6.26-1.24,10.37-2.05c0.62-10.68,1.24-21.32,1.9-32.62c2.95-0.51,5.91-1.01,9.69-1.66c0.46-2.66,0.97-5.6,1.58-9.16
		c3.33-0.42,6.64-0.83,10.51-1.31c0.51-3.56,0.99-6.91,1.63-11.37c18.47,0,37.16,0,56.38,0c0.64-3.91,1.12-6.85,1.7-10.35
		c14.66-0.7,29.45-1.4,45.24-2.15c0,26.52,0,53.23,0,80.85c27.22,0,53.47,0,81.44,0c0-27.01,0-53.68,0-81.29
		c12.31,0.93,22.86,1.73,34.23,2.59c0.66,2.88,1.39,6.09,2.23,9.8c14.91,0,29.54,0,44.74,0c0.62,3.4,1.15,6.33,1.82,10.05
		c7.21,0.12,14.05,1.51,11.52,12.03c3.68,0.7,6.95,1.31,10.55,1.99c0.28,3.68,0.53,7.05,0.83,10.99c3.29,0.34,6.27,0.64,10.14,1.04
		c0,11.04,0,21.73,0,33.04c27.35,0,53.76,0,81.27,0c0-14.7,0-29.52,0-44.83c4.19-0.79,7.4-1.39,11.42-2.15c0-7.16,0-14,0-21.89
		c19.93,0,38.98,0,58.18,0c0.78-3.97,1.36-6.96,2.07-10.61c10.98,0,21.72,0,33.31,0c0.8-4.15,1.49-7.76,2.32-12.04
		c3.03,0,6.25,0,9.94,0c0,18.56,0,36.58,0,56.47c-9.78,0-19.37,0-28.97,0c-6.99,0-13.98,0-20.96,0c-22.64,0-22.64,0-19.12,24
		c2.89,0.42,5.92,0.85,9.34,1.35c0.64,3.02,1.27,6.02,2.15,10.17c34.18,0,68.61,0,103.72,0c0,27.44,0,53.74,0,82.01
		c-54.02,0-107.9,0-162.14,0c-0.49,4.89-0.79,7.87-1.15,11.41c-3.35,0.28-6.31,0.54-9.63,0.82c0,7.5,0,14.36,0,21.99
		c3.11,0.34,6.06,0.66,9.62,1.05c0.31,3.19,0.6,6.16,0.98,10c38.76,0,77.04,0,115.98,0c0,8.45,0,15.97,0,24.26
		c-3.06,0.52-6.33,1.07-9.6,1.62c-0.68,3.25-1.3,6.23-1.97,9.47c-38.76,0-77.14,0-116.23,0c-0.67-3.09-1.36-6.28-2.04-9.43
		c-6.67-1.15-13.04-2.25-19.5-3.37c-1.22-6.58-2.4-12.93-3.69-19.89c-2.82-0.32-5.79-0.65-9.46-1.06c0-15.59,0-30.84,0-47.21
		c-23.2,0-45.7,0-69.24,0c0-31.27,0-61.44,0-92.02c-4.13-0.97-7.36-1.73-11.06-2.59c-0.81-6.64-1.6-13.12-2.53-20.75
		c-10.69-0.72-21.52-1.45-33.44-2.25c0,39.57,0,77.49,0,116.28C5379.61,1673.1,5279.27,1673.1,5178.02,1673.1z M5271.95,1591.92
		c20.21,0,39.08,0,58.48,0c0-10.01,0.25-19.02-0.18-27.99c-0.1-2.19-2.37-6.08-3.75-6.14c-13.18-0.52-26.42-0.83-39.56,0.06
		c-1.99,0.13-3.54,6.71-5.33,10.29c-0.14,0.29-0.5,0.47-0.85,0.79c-2.81,0.54-5.75,1.1-8.81,1.69
		C5271.95,1578.01,5271.95,1584.81,5271.95,1591.92z"/>
	<path class="st0" d="M3351.3,1349.45c0-3.78,0-7.55,0-11.89c3.45-0.47,6.42-0.88,10.02-1.37c0.3-3.08,0.59-6.06,0.88-9.07
		c7.65-1.17,14.74-2.26,22.37-3.43c0.35-3.14,0.69-6.11,1.07-9.49c3.89-0.32,7.26-0.59,11.26-0.92c0.36-3.18,0.7-6.13,1.14-9.98
		c7.27,0,14.12,0,21.5,0c0.79-4.44,1.43-8.05,2.2-12.37c7.04,0,13.92,0,21.42,0c0.7-3.55,1.28-6.46,1.99-10.06
		c3.12-0.46,6.39-0.95,10.49-1.55c0-58.17,0-115.98,0-174.41c8.01,0,15.12,0,23.1,0c0,53.99,0,107.59,0,162.01
		c4.08,0.31,7.37,0.56,11.32,0.86c0.8-3.56,1.51-6.74,2.21-9.85c21.89-2.96,21.89-2.96,22.97-12.96c10.3,0,20.69,0,31.74,0
		c0.79-3.76,1.46-6.96,2.24-10.7c14.42-0.7,28.93-1.39,44.1-2.13c0.74-3.42,1.42-6.6,2.29-10.64c18.4,0,36.8,0,55.65,0
		c0.94-4,1.7-7.25,2.59-11.04c26.74,0,53.5,0,80.49,0c0.42,3.54,0.79,6.61,1.25,10.47c14.68,0,29.26,0,44.46,0
		c0.67,4.28,1.24,7.88,1.94,12.35c6.88,0,13.76,0,21.16,0c0.61,3.73,1.1,6.69,1.7,10.34c2.71,0.45,5.67,0.95,9.46,1.58
		c-0.31,8,2.24,14.09,12.44,11.95c0.42,3.5,0.74,6.2,1.13,9.49c3.11,0.56,6.38,1.15,10.53,1.9c0,7.04,0,13.9,0,21.3
		c4.2,0.51,7.54,0.92,11.6,1.41c0,33.95,0,67.99,0,102.63c-3.07,0.68-6.3,1.4-9.85,2.19c-0.81,11.32-1.6,22.33-2.42,33.8
		c-3.26,0.54-6.24,1.04-10,1.66c0,6.97,0,13.84,0,21.52c-3.63,0.41-6.56,0.74-10.85,1.22c0-11.97,0-23.31,0-35.01
		c-4.55-0.61-7.9-1.05-11.88-1.58c-0.47-2.87-0.96-5.85-1.57-9.59c-2.69-0.47-5.62-0.99-10.43-1.84c0-18.84,0-37.78,0-57.01
		c-4.75-0.93-7.71-1.51-11.71-2.29c0-6.87,0-14.02,0-21.71c-3.87-0.55-6.82-0.97-9.24-1.31c-5.66-7.35,7.02-23.85-13.18-22.95
		c-0.49-3.02-0.98-5.99-1.57-9.6c-3.5-0.38-7.18-0.78-11.52-1.25c-0.24-3.11-0.48-6.08-0.71-9.06c-6.97-1.29-13.33-2.47-20.4-3.77
		c-0.3-2.76-0.61-5.71-1-9.35c-7.43,0-14.31,0-21.85,0c-0.73-3.82-1.35-7.04-2.19-11.45c-50.19,0-100.18,0-150.62,0
		c-0.44,4.28-0.75,7.27-1.12,10.96c-14.92,0-29.49,0-44.68,0c-0.57,3.57-1.04,6.5-1.68,10.5c-6.97,0-14.13,0-21.88,0
		c0,70.72,0,140.37,0,211.35c41.54,0,83.23,0,125.39,0c0.2,3.96,0.33,6.63,0.53,10.62c-42.14,0-83.82,0-126.58,0
		c0,23.78,0,46.29,0,68.98c-4.46,0.47-7.86,0.82-11.75,1.23c-0.42,3.22-0.82,6.23-1.33,10.11c-2.83,0.17-5.77,0.35-10.07,0.61
		c0-27.07,0-53.36,0-80.15c-74.25,0-147.18,0-220.96,0c-0.6,2.75-1.29,5.93-2.08,9.55c-3.02,0.31-6.02,0.62-9.39,0.96
		c-0.33,3.88-0.62,7.26-0.96,11.26c-3.51,0.5-6.8,0.96-10.8,1.53c-0.55,11.35-1.08,22.4-1.65,34.12c-3.15,0.43-6.11,0.83-9.81,1.33
		c0,30.57,0,61.06,0,92c3.27,0.63,6.25,1.2,8.7,1.67c6.02,7.22-7.08,23.76,13.66,23.08c0,6.68,0,13.09,0,19.88
		c4.41,0.64,7.71,1.12,11.48,1.66c0.62,3.61,1.2,6.98,1.94,11.26c6.27,0,12.73,0,19.94,0c0.69,8.01,1.21,16.04,12.59,12.93
		c0.56,3.48,1.04,6.46,1.64,10.19c10.94,0,22.03,0,33.73,0c0.77,3.78,1.42,6.97,2.35,11.56c37.61,0,75.35,0,113.58,0
		c0.66-3.92,1.16-6.87,1.76-10.47c14.55,0,29.06,0,44.38,0c0.43,3.46,0.88,7.07,1.38,11.1c3.83,0.48,7.19,0.91,11.11,1.4
		c0,49.57,0,99.02,0,149.36c-6.92,0-14.01,0-22.5,0c0-45.8,0-91.95,0-138.72c-12.04,0-22.71,0-34.01,0
		c-0.57,2.88-1.16,5.85-1.86,9.42c-11.06,0.89-22.39,1.8-34.12,2.75c-0.53,3.41-1,6.4-1.55,9.91c-49.66,0-99.19,0-149.58,0
		c-0.59-2.8-1.26-5.99-2.08-9.93c-10.52-0.86-21.16-1.73-32.42-2.65c-0.59-2.85-1.19-5.8-2.03-9.88c-7.05,0-14.18,0-21.71,0
		c-0.59-4.46-1.04-7.83-1.55-11.71c-2.99-0.52-5.99-1.04-9.56-1.66c-0.82-6.29-1.67-12.76-2.58-19.7c-3.1-0.44-6.12-0.86-9.77-1.38
		c-0.47-3.49-0.97-7.15-1.53-11.34c-3.04-0.36-6.03-0.71-10.31-1.22c0-38.24,0-76.36,0-114.8c3.81-0.77,6.8-1.37,10.68-2.15
		c0-6.69,0-13.56,0-20.98c3.94-0.93,7.18-1.7,11.02-2.61c0.75-6.65,1.53-13.49,2.38-21.03c2.93-0.62,6.16-1.3,10.22-2.15
		c0-6.97,0-13.83,0-21.24c4.09-0.6,7.37-1.08,11.08-1.62c0-7.18,0-14.01,0-21.89c-26.75,0-53.12,0-80.25,0
		c-0.18-3.91-0.31-6.81-0.54-11.84c34.99,0,69.29,0,103.86,0c0.86-8.18,1.5-14.34,2.22-21.23c3.22-0.61,6.46-1.22,10.19-1.92
		c0.43-3.51,0.84-6.88,1.32-10.83c3.31-0.42,6.67-0.84,10.53-1.32c0.59-2.92,1.2-5.91,1.92-9.46c2.77-0.51,5.75-1.07,9.44-1.75
		c0.44-3.25,0.88-6.57,1.42-10.6c3.13-0.44,6.46-0.91,10.57-1.49c0.68-2.97,1.43-6.22,2.27-9.89c2.85-0.5,5.86-1.04,9.21-1.63
		c0.38-3.52,0.74-6.91,1.15-10.72c3.63-0.38,7.01-0.74,11.04-1.17c0.48-3.14,0.93-6.11,1.49-9.81c2.72-0.53,5.67-1.09,9.22-1.78
		c0.4-3.05,0.84-6.41,1.37-10.52c3.43-0.55,7.07-1.14,11.22-1.81c0.42-2.86,0.86-5.87,1.4-9.5c2.88-0.44,5.84-0.89,9.36-1.43
		c0.29-3.49,0.57-6.88,0.98-11.87c7.59,0,15.15,0,22.71,0l-0.28-0.28c0,3.68,0,7.35,0,12.38c-11.54-3.48-12.77,3.48-12.99,10.82
		c-3.5,0.66-6.46,1.21-9.28,1.74c-0.48,3.61-0.89,6.62-1.28,9.56c-4.18,0.78-7.8,1.45-11.38,2.11c-0.41,3.78-0.74,6.83-1.11,10.26
		c-3.23,0.5-6.2,0.96-9.46,1.47c-0.33,3.46-0.62,6.47-0.92,9.53c-4.21,0.7-7.84,1.31-11.46,1.91c-0.52,4-0.95,7.33-1.36,10.48
		c-3.63,0.68-6.56,1.23-9.28,1.75c-0.48,4.03-0.87,7.36-1.25,10.54c-3.7,0.69-6.65,1.24-9.39,1.75c-1.14,7.08-2.18,13.48-3.24,20.1
		c-3.24,0.39-6.22,0.74-9.46,1.13c-0.27,3.95-0.5,7.33-0.76,11.03c-3.62,0.66-6.89,1.26-10.52,1.93c0.15,3.13,0.27,5.79,0.46,9.94
		c73.43,0,146.32,0,219.21,0c0-62.12,0-124.02,0-186.15c-7.8,0-14.91,0-22.15,0c-0.46,4.05-0.85,7.44-1.35,11.85
		c-7.53,0-14.67,0-22.2,0c-0.55,3.96-0.96,6.93-1.37,9.88c-7.68,1.21-14.77,2.33-22.39,3.53c-0.32,3.09-0.63,6.07-0.95,9.17
		c-4.02,0.43-7.37,0.79-11.09,1.19c-0.47,3.44-0.88,6.43-1.35,9.93c-7.34,0.62-14.19,1.19-21.05,1.77L3351.3,1349.45z"/>
	<path class="st0" d="M3850.9,1674.12c0,7.84,0,14.68,0,22.24c-3.79,0.25-6.72,0.44-10.23,0.67c-1.01-6.95-1.94-13.37-2.88-19.79
		c-18.39-4.32-278.8-4.91-311.86-0.63c-0.38,2.82-0.78,5.81-1.26,9.38c-3.01,0.35-5.99,0.7-9.45,1.1c0,7.15,0,14.01,0,21.59
		c2.81,0.45,5.75,0.93,9.33,1.51c0.42,2.76,0.87,5.73,1.46,9.66c37.85,0,75.79,0,114.55,0c0,8.42,0,15.92,0,24.29
		c-2.69,0.56-5.9,1.22-9.78,2.03c-0.31,2.82-0.64,5.78-1.01,9.11c-38.84,0-77.18,0-116.29,0c-0.46-2.83-0.93-5.75-1.5-9.28
		c-6.16-1.06-12.54-2.15-19.67-3.38c-1.12-6.2-2.33-12.85-3.64-20.08c-2.93-0.26-5.9-0.52-9.57-0.85c0-15.1,0-29.67,0-44.91
		c-7.67-1.22-14.73-2.35-22.64-3.61c0-6.64,0-13.76,0-21.62c2.76-0.39,5.72-0.82,9.94-1.42c0.74-14.29,1.49-28.74,2.27-43.82
		c2.87-0.57,5.84-1.15,9.43-1.86c0.46-3.1,0.96-6.44,1.66-11.08c14.56,0,29.35,0,45.09,0c0-19.61,0-37.96,0-56.97
		c3.8-0.48,6.74-0.86,10.32-1.31c0.31-3.75,0.6-7.4,0.96-11.75c19.25,0,38.02,0,57.4,0c0.62-3.52,1.14-6.43,1.85-10.41
		c10.81,0,21.84,0,33.45,0c0.83-4.51,1.5-8.09,2.27-12.24c2.98,0,5.94,0,9.59,0c0,18.49,0,36.78,0,56.25c-22.79,0-45.32,0-68.56,0
		c0,8.62,0,16.09,0,24.42c2.76,0.33,5.71,0.69,9.29,1.12c0.46,3.09,0.91,6.05,1.56,10.4c34.83,0,69.56,0,105.24,0
		c0,23.95,0,46.48,0,69.76c3.83,0.27,6.74,0.47,10.83,0.75c0.84-15.45,1.64-30.23,2.47-45.64c3.08-0.74,6.32-1.51,10.2-2.43
		c0-7.14,0-14.05,0-22.25c27.4,0,54.1,0,81.33,0c0-8.13,0-14.99,0-22.59c-3.51-0.51-7.15-1.03-11.38-1.65
		c-0.37-3.28-0.75-6.64-1.2-10.57c-2.85-0.56-5.81-1.15-9.08-1.79c-1.22-6.55-2.46-13.24-3.69-19.81
		c-21.62-3.07-21.62-3.07-22.71,8.99c-2.86,0.22-5.85,0.46-9.5,0.74c0-15.43,0-30.26,0-45.71c11.24,0,22.28,0,34.14,0
		c0.53,2.81,1.14,6.01,1.73,9.12c6.69,1.24,13.05,2.41,19.86,3.66c0.34,3.03,0.66,5.99,1.02,9.25c4.02,0.28,7.41,0.51,11.53,0.79
		c0,7.16,0,14.03,0,21.51c3.81,0.76,7.02,1.41,10.8,2.17c-0.74,8.35,1.99,13.72,12.11,11.52c0.45,3.61,0.82,6.59,1.27,10.23
		c3.6,0.21,6.97,0.41,11.5,0.68c0-7.67,0-14.81,0-22.46c3.98-0.61,6.95-1.06,10.7-1.63c0.32-7.1,0.64-14.23,0.99-21.86
		c11.4,0,22.11,0,33.64,0c0,46.2,0,92.38,0,139.02c-3.19,0.45-6.21,0.88-9.61,1.36c-0.58,3.05-1.15,6.06-1.91,10.06
		C3866.15,1674.12,3858.97,1674.12,3850.9,1674.12z"/>
	<path class="st0" d="M4329.19,1477.76c-0.79,2.93-1.57,5.85-2.43,9.03c-6.66,1.17-13.39,2.36-20.72,3.66
		c-0.37,2.79-0.76,5.76-1.21,9.22c-3.62,0.31-7.02,0.6-11.13,0.94c0,7.15,0,14.25,0,22.42c18.96,0,37.66,0,56.89,0
		c0.46,4.33,0.81,7.68,1.23,11.65c3.43,0.55,6.76,1.08,10.93,1.75c0,45.31,0,90.75,0,136.88c-154.69,0-309.23,0-464.32,0
		c0-6.55,0-12.71,0-19.75c11.61,0.45,12.53-7,11.66-16.23c-0.58-6.2-0.11-12.5-0.11-19.23c3.74-0.92,6.96-1.72,11.03-2.72
		c0-6.9,0-13.74,0-21.83c7.93-0.38,15.03-0.72,22.7-1.09c0.52-3.25,0.99-6.21,1.56-9.78c2.87-0.45,5.84-0.92,9.82-1.55
		c0-26.66,0-53.36,0-80.54c7.88,0,14.73,0,22.34,0c0.44,3.55,0.89,7.17,1.42,11.48c3.62,0.36,7.28,0.72,11.73,1.15
		c0,37.83,0,75.4,0,113.71c7.98,0.62,16.73,0.4,12.25,12.61c11.68,0,22.03,0,33.17,0c0.5-3.52,1.02-7.13,1.62-11.35
		c3.06-0.3,6.05-0.59,9.41-0.92c1.04-7.26,2.01-14.06,3.11-21.74c2.57-0.59,5.77-1.32,9.75-2.23c0-6.55,0-13.07,0-20.39
		c3.65-0.42,6.54-0.75,10.07-1.16c0.91,3.82,1.69,7.05,2.52,10.51c11.32,0,22.32,0,34.46,0c0-65.4,0-130.13,0-195.35
		c4.33-0.71,7.63-1.25,10.89-1.79c2.86-12.94,4.57-13.72,24.28-10.08c0,68.58,0,137.49,0,207.13c62.58,0,123.49,0,184.04,0
		c0.56-0.81,0.88-1.07,0.93-1.39c5.61-33.56,5.61-33.56-27.62-33.56c-28.99,0-57.97,0-87.76,0c0-11.11,0-21.76,0-33.57
		c6.65,0,13.76,0,21.48,0c0.56-3.96,0.98-6.9,1.43-10.11c7.14-1.17,14.19-2.33,21.89-3.59c0.43-2.81,0.89-5.76,1.47-9.48
		c6.94,0,13.82,0,21.38,0c0.79-3.8,1.44-6.97,2.07-10.02c7.2-1.2,13.97-2.33,21.63-3.61c0.63-2.78,1.35-5.98,2.28-10.08
		c8.17,0.41,16.11,0.81,24.06,1.21L4329.19,1477.76z"/>
	<path class="st0" d="M5794.62,1406.42c-0.4-3.47-0.75-6.53-1.19-10.34c-10.58-0.52-20.93-1.02-32.18-1.57c0-6.85,0-13.6,0-21.27
		c10.13-0.66,20.75-1.35,31.96-2.08c0.56-3.62,1.06-6.88,1.64-10.62c3.66-0.28,7.06-0.54,11.03-0.84c0.44-3.43,0.87-6.78,1.39-10.88
		c2.7-0.54,5.64-1.14,9.58-1.93c1.08-10.43,2.2-21.29,3.37-32.66c6.08,0,12.24,0,19.11,0c1.03,10.53,2.08,21.36,3.2,32.86
		c3.38,0.43,6.34,0.81,9.73,1.24c0.37,3.77,0.7,7.12,1.1,11.16c3.47,0.33,6.83,0.65,11,1.04c0.58,3.03,1.2,6.28,2.03,10.59
		c10.34,0.66,20.95,1.33,32.18,2.05c0,7.02,0,13.77,0,21.22c-10.95,0.58-21.59,1.14-32.46,1.71c-0.44,3.77-0.8,6.82-1.21,10.3
		c-3.76,0.56-7.43,1.1-11.52,1.7c-0.35,3.53-0.69,6.91-1.05,10.47c-3.31,0.61-6.31,1.16-9.71,1.78c-1.06,10.85-2.1,21.46-3.22,32.85
		c-6.05,0-12.45,0-19.19,0c-1.12-10.86-2.23-21.74-3.38-32.87c-3.35-0.61-6.36-1.16-9.67-1.76c-0.36-3.56-0.69-6.94-1.05-10.49
		C5802.06,1407.51,5798.38,1406.98,5794.62,1406.42z"/>
	<path class="st0" d="M5921.83,1325.97c-3.75,0.28-6.83,0.51-10.31,0.77c-0.63,3.13-1.23,6.12-1.92,9.61c-2.98,0-6.02,0-10.22,0
		c0-7.29,0-14.44,0-22.03c-4.47-0.4-7.83-0.7-11.71-1.05c-0.46-3.57-0.89-6.94-1.41-11c-3.01-0.58-6.23-1.2-9.84-1.89
		c0-2.93,0-5.62,0-9.4c7.07,0,14.24,0,22.24,0c0.36-8.12,0.67-15.25,1-22.83c3.61,0,6.6,0,10.05,0c0.54,3.16,1.05,6.15,1.61,9.41
		c3.64,0.36,7.01,0.7,10.8,1.07c0.33,3.8,0.62,7.18,0.97,11.24c3.53,0.41,6.87,0.8,11.03,1.29c0,6.96,0,14.06,0,21.95
		c-3.1,0.38-6.42,0.78-10.5,1.28C5923.1,1317.81,5922.53,1321.44,5921.83,1325.97z"/>
	<path class="st0" d="M3793.8,1499.5c1.31-20.03-14.26-8.32-22.34-13.37c0-1.95,0-5.06,0-8.99c7.09,0,13.97,0,21.53,0
		c0.42-3.62,0.76-6.57,1.18-10.24c3.05-0.32,6-0.63,9.46-1c0.3-3.83,0.57-7.21,0.89-11.29c3.08-0.23,6.05-0.46,9.77-0.74
		c0,7.76,0,14.89,0,22.79c-3.03,0.29-6,0.57-9.63,0.91c-0.17,3.68-0.33,7.04-0.53,11.52c31.01,0,61.57,0,92.96,0
		c0.31,3.9,0.53,6.79,0.81,10.4C3863.02,1499.5,3828.95,1499.5,3793.8,1499.5z"/>
	<path class="st0" d="M3956.72,1420c12.11,0,22.73,0,33.71,0c0,11.33,0,21.98,0,33.31c-10.94,0-21.51,0-33.71,0
		C3956.72,1442.22,3956.72,1431.25,3956.72,1420z"/>
	<path class="st0" d="M3791.25,1420.21c0,11.87,0,22.2,0,33.15c-11.01,0-21.57,0-32.7,0c0-10.99,0-21.62,0-33.15
		C3769.35,1420.21,3780.17,1420.21,3791.25,1420.21z"/>
	<path class="st0" d="M4734.79,1453.58c-11.17,0-21.47,0-32.49,0c0-11.2,0-22.09,0-33.63c10.78,0,21.38,0,32.49,0
		C4734.79,1431.17,4734.79,1441.81,4734.79,1453.58z"/>
	<path class="st0" d="M5072.5,1442.98c0,11.97,0,22.29,0,33.38c-11.07,0-21.91,0-33.39,0c0-10.77,0-21.31,0-33.38
		C5050.19,1442.98,5060.96,1442.98,5072.5,1442.98z"/>
	<path class="st0" d="M5096.8,1430.28c-7.92,0-15.14,0-23.11,0c-0.53-3.64-1.05-7.24-1.68-11.51c-3-0.28-5.97-0.55-9.45-0.88
		c0-3.52,0-6.47,0-9.98c3.52-0.47,6.84-0.91,10.67-1.41c0.63-3.25,1.2-6.22,1.92-9.95c7.03,0,14.1,0,21.69,0
		c0.53,3.25,1.02,6.24,1.59,9.73c2.96,0.53,5.96,1.06,9.49,1.69c0,3.26,0,6.62,0,10.59c-2.99,0.52-5.96,1.04-9.39,1.63
		C5098.01,1423.22,5097.5,1426.22,5096.8,1430.28z"/>
	<path class="st0" d="M5098.05,1463.85c0-3.28,0-5.97,0-9.24c3.25-0.41,6.22-0.79,9.76-1.25c0.36-3.12,0.71-6.1,1.13-9.69
		c7.06,0,13.92,0,21.56,0c0.56,2.85,1.21,6.08,1.97,9.9c2.93,0.27,5.88,0.54,9.15,0.84c0,3.36,0,6.04,0,9.34
		c-2.93,0.47-5.9,0.94-9.49,1.51c-0.36,3.54-0.73,7.2-1.15,11.34c-7.45,0-14.59,0-22.2,0c-0.24-3.87-0.46-7.25-0.71-11.24
		C5104.98,1464.9,5102.02,1464.45,5098.05,1463.85z"/>
	<path class="st0" d="M3654.06,1499.57c0-3.42,0-6.07,0-9.36c22.6,0,44.78,0,67.76,0c0.17,2.9,0.34,5.81,0.55,9.36
		C3699.54,1499.57,3677.35,1499.57,3654.06,1499.57z"/>
	<path class="st0" d="M4374.36,1464.18c-8.27,0-15.07,0-22.51,0c0-3.25,0-6.13,0-9.62c7.14,0,14.21,0,22.06,0
		C4374.06,1457.58,4374.19,1460.45,4374.36,1464.18z"/>
	<path class="st0" d="M4329.42,1477.98c-0.65-3.27-1.3-6.55-2.14-10.78c8.09,0,15.19,0,23.18,0c0.24,2.67,0.51,5.56,0.85,9.29
		c-7.84,0.44-15,0.83-22.14,1.25C4329.19,1477.76,4329.42,1477.98,4329.42,1477.98z"/>
	<path class="st0" d="M3338.76,1359.93c0-3.24,0-6.48,0-10.48c4.71,0,8.62,0,12.54,0c0,0-0.19-0.22-0.19-0.22c0,3.29,0,6.57,0,10.41
		c-4.73,0-8.67,0-12.62,0L3338.76,1359.93z"/>
	<path class="st0" d="M4386.46,1441.97c0,5.15,0,7.81,0,11.26c-3.11,0.27-6.04,0.52-9.92,0.85c-0.17-3.31-1.43-7.04-0.19-8.31
		C4378.3,1443.81,4381.94,1443.52,4386.46,1441.97z"/>
</g>
</svg>
